<svg width="163" height="87" viewBox="0 0 163 87" fill="none" xmlns="http://www.w3.org/2000/svg">
<path d="M71.6308 8.12944C71.9697 8.4376 73.3102 9.25115 73.9882 9.56239C74.549 9.81816 75.1869 10.0154 75.8063 10.1232C76.2439 10.2003 76.4011 10.2157 76.8695 10.2342C78.1052 10.2804 79.5413 10.8906 80.3795 11.7257C81.3255 12.6656 81.8987 14.231 81.8093 15.627C81.7908 15.929 81.7878 15.9352 81.6799 16.0338C81.5875 16.117 81.5073 16.1478 81.1838 16.2248C80.4319 16.4067 80.2654 16.4251 79.5043 16.4282C78.7308 16.4282 78.3641 16.3913 77.5475 16.2248C76.623 16.0338 75.8526 15.701 74.9897 15.1155C74.096 14.5115 73.1161 13.513 72.6169 12.6995C72.0499 11.775 71.6184 10.3759 71.4459 8.87827C71.4089 8.57935 71.4274 8.00001 71.4705 8.00001C71.4828 8.00309 71.5537 8.05856 71.6308 8.12944Z" fill="#FFAE00"/>
<path d="M85.2053 12.4591C85.042 12.8875 85.0111 13.3743 85.1221 13.8273C85.2022 14.1632 85.3193 14.4683 85.421 14.6162C85.6336 14.9336 86.0774 15.2757 86.5304 15.4729L86.7677 15.5746L86.6444 15.6393C86.5766 15.6732 86.5088 15.7195 86.4965 15.7379C86.4872 15.7564 86.3085 15.852 86.102 15.9506C84.5335 16.6932 83.3902 17.627 82.6106 18.8011C82.2654 19.3219 81.9357 19.9628 81.6799 20.6161C81.5597 20.9151 81.3379 21.5838 81.3379 21.6392C81.3379 21.6639 81.455 21.556 81.5967 21.3989C82.1822 20.7487 83.0512 20.0769 83.9418 19.5807C84.9187 19.0353 86.2006 18.6008 87.2422 18.4621C87.6737 18.4035 88.6413 18.3974 89.0727 18.4467C90.5919 18.6254 92.2683 19.1678 93.236 19.7903C93.8831 20.2094 94.786 21.0168 95.35 21.6885C96.5949 23.1646 97.4177 24.8719 97.7629 26.69C98.0957 28.4496 98.0772 30.6838 97.7136 32.2677C97.3592 33.8209 96.7706 35.4449 96.0402 36.9056C95.541 37.8978 94.9093 38.9025 94.0803 40.018C93.125 41.303 91.4425 43.2475 90.897 43.7036C90.1174 44.3538 88.9988 45.1057 88.1944 45.5187C87.0851 46.0888 85.7168 46.4062 84.5951 46.3538C83.3779 46.2983 82.5489 46.0765 81.4241 45.5156C81.1745 45.3893 80.9403 45.2876 80.9064 45.2876C80.8725 45.2876 80.6969 45.3738 80.5151 45.4755C79.8648 45.8515 79.0667 46.172 78.4874 46.2891C77.7231 46.4463 76.6784 46.4986 76.0837 46.4124C74.7586 46.2213 73.3688 45.6574 72.2471 44.85C71.4181 44.2552 70.2841 43.1736 69.3195 42.0519C68.7957 41.4448 67.9297 40.2522 67.2918 39.2568C65.8712 37.0504 65.0084 35.2292 64.5461 33.4542C64.0746 31.6452 63.8805 29.4049 64.0746 27.9997C64.2133 27.0074 64.4783 25.821 64.7218 25.103C65.2241 23.633 66.1486 22.1847 67.3843 20.9428C68.1146 20.2094 69.5938 19.2849 70.66 18.8904C71.5784 18.5515 72.7401 18.3881 73.942 18.4282C74.6045 18.4498 74.9866 18.4929 75.5906 18.6162C77.4026 18.9891 78.5798 19.6485 80.2161 21.2047L80.6784 21.6454L80.7184 21.1339C80.8479 19.3866 81.23 17.855 81.8463 16.6316C82.3794 15.5685 83.1468 14.5084 84.2377 13.3404C84.592 12.9614 85.1652 12.4067 85.2053 12.4067C85.2176 12.4067 85.2176 12.4314 85.2053 12.4591Z" fill="#00B37E"/>
<path d="M55.9375 72V56H65.5313V57.7187H57.875V63.125H64.8125V64.8437H57.875V72H55.9375ZM72.5938 72.25C71.5104 72.25 70.5599 71.9922 69.7422 71.4766C68.9297 70.9609 68.2943 70.2396 67.8359 69.3125C67.3828 68.3854 67.1563 67.3021 67.1563 66.0625C67.1563 64.8125 67.3828 63.7214 67.8359 62.7891C68.2943 61.8568 68.9297 61.1328 69.7422 60.6172C70.5599 60.1016 71.5104 59.8438 72.5938 59.8438C73.6771 59.8438 74.625 60.1016 75.4375 60.6172C76.2552 61.1328 76.8906 61.8568 77.3438 62.7891C77.8021 63.7214 78.0313 64.8125 78.0313 66.0625C78.0313 67.3021 77.8021 68.3854 77.3438 69.3125C76.8906 70.2396 76.2552 70.9609 75.4375 71.4766C74.625 71.9922 73.6771 72.25 72.5938 72.25ZM72.5938 70.5938C73.4167 70.5938 74.0937 70.3828 74.625 69.9609C75.1563 69.5391 75.5495 68.9844 75.8047 68.2969C76.0599 67.6094 76.1875 66.8646 76.1875 66.0625C76.1875 65.2604 76.0599 64.513 75.8047 63.8203C75.5495 63.1276 75.1563 62.5677 74.625 62.1406C74.0937 61.7135 73.4167 61.5 72.5938 61.5C71.7708 61.5 71.0938 61.7135 70.5625 62.1406C70.0313 62.5677 69.638 63.1276 69.3828 63.8203C69.1276 64.513 69 65.2604 69 66.0625C69 66.8646 69.1276 67.6094 69.3828 68.2969C69.638 68.9844 70.0313 69.5391 70.5625 69.9609C71.0938 70.3828 71.7708 70.5938 72.5938 70.5938ZM80.8457 72V60H82.627V61.8125H82.752C82.9707 61.2188 83.3665 60.737 83.9395 60.3672C84.5124 59.9974 85.1582 59.8125 85.877 59.8125C86.0124 59.8125 86.1816 59.8151 86.3848 59.8203C86.5879 59.8255 86.7415 59.8333 86.8457 59.8438V61.7187C86.7832 61.7031 86.64 61.6797 86.416 61.6484C86.1973 61.612 85.9655 61.5937 85.7207 61.5937C85.1374 61.5937 84.6165 61.7161 84.1582 61.9609C83.7051 62.2005 83.3457 62.5339 83.0801 62.9609C82.8197 63.3828 82.6895 63.8646 82.6895 64.4062V72H80.8457ZM89.0313 72V60H90.8125V61.875H90.9688C91.2188 61.2344 91.6224 60.737 92.1797 60.3828C92.737 60.0234 93.4063 59.8438 94.1875 59.8438C94.9792 59.8438 95.638 60.0234 96.1641 60.3828C96.6953 60.737 97.1094 61.2344 97.4063 61.875H97.5313C97.8385 61.2552 98.2995 60.763 98.9141 60.3984C99.5286 60.0286 100.266 59.8438 101.125 59.8438C102.198 59.8438 103.076 60.1797 103.758 60.8516C104.44 61.5182 104.781 62.5573 104.781 63.9687V72H102.937V63.9687C102.937 63.0833 102.695 62.4505 102.211 62.0703C101.727 61.6901 101.156 61.5 100.5 61.5C99.6563 61.5 99.0026 61.7552 98.5391 62.2656C98.0755 62.7708 97.8438 63.4115 97.8438 64.1875V72H95.9688V63.7812C95.9688 63.099 95.7474 62.5495 95.3047 62.1328C94.862 61.7109 94.2917 61.5 93.5937 61.5C93.1146 61.5 92.6667 61.6276 92.25 61.8828C91.8385 62.138 91.5052 62.4922 91.25 62.9453C91 63.3932 90.875 63.9115 90.875 64.5V72H89.0313ZM111.684 72.2813C110.923 72.2813 110.233 72.138 109.613 71.8516C108.993 71.5599 108.501 71.1406 108.137 70.5938C107.772 70.0417 107.59 69.375 107.59 68.5937C107.59 67.9062 107.725 67.349 107.996 66.9219C108.267 66.4896 108.629 66.151 109.082 65.9062C109.535 65.6615 110.035 65.4792 110.582 65.3594C111.134 65.2344 111.689 65.1354 112.246 65.0625C112.975 64.9687 113.566 64.8984 114.02 64.8516C114.478 64.7995 114.811 64.7135 115.02 64.5937C115.233 64.474 115.34 64.2656 115.34 63.9687V63.9062C115.34 63.1354 115.129 62.5365 114.707 62.1094C114.29 61.6823 113.658 61.4687 112.809 61.4687C111.928 61.4687 111.238 61.6615 110.738 62.0469C110.238 62.4323 109.887 62.8437 109.684 63.2812L107.934 62.6562C108.246 61.9271 108.663 61.3594 109.184 60.9531C109.71 60.5417 110.283 60.2552 110.902 60.0937C111.527 59.9271 112.142 59.8438 112.746 59.8438C113.132 59.8438 113.574 59.8906 114.074 59.9844C114.579 60.0729 115.066 60.2578 115.535 60.5391C116.009 60.8203 116.402 61.2448 116.715 61.8125C117.027 62.3802 117.184 63.1406 117.184 64.0938V72H115.34V70.375H115.246C115.121 70.6354 114.913 70.9141 114.621 71.2109C114.329 71.5078 113.941 71.7604 113.457 71.9687C112.973 72.1771 112.382 72.2813 111.684 72.2813ZM111.965 70.625C112.694 70.625 113.309 70.4818 113.809 70.1953C114.314 69.9089 114.694 69.5391 114.949 69.0859C115.21 68.6328 115.34 68.1562 115.34 67.6562V65.9687C115.262 66.0625 115.09 66.1484 114.824 66.2266C114.564 66.2995 114.262 66.3646 113.918 66.4219C113.579 66.474 113.249 66.5208 112.926 66.5625C112.608 66.599 112.35 66.6302 112.152 66.6562C111.673 66.7187 111.225 66.8203 110.809 66.9609C110.397 67.0964 110.064 67.3021 109.809 67.5781C109.559 67.849 109.434 68.2187 109.434 68.6875C109.434 69.3281 109.671 69.8125 110.145 70.1406C110.624 70.4635 111.23 70.625 111.965 70.625ZM122.393 64.7812V72H120.549V60H122.33V61.875H122.486C122.768 61.2656 123.195 60.776 123.768 60.4063C124.34 60.0313 125.08 59.8438 125.986 59.8438C126.799 59.8438 127.51 60.0104 128.119 60.3437C128.729 60.6719 129.202 61.1719 129.541 61.8437C129.88 62.5104 130.049 63.3542 130.049 64.375V72H128.205V64.5C128.205 63.5573 127.96 62.8229 127.471 62.2969C126.981 61.7656 126.309 61.5 125.455 61.5C124.867 61.5 124.34 61.6276 123.877 61.8828C123.419 62.138 123.057 62.5104 122.791 63C122.525 63.4896 122.393 64.0833 122.393 64.7812ZM137.949 72.25C136.949 72.25 136.066 71.9974 135.301 71.4922C134.535 70.9818 133.936 70.263 133.504 69.3359C133.072 68.4036 132.855 67.3021 132.855 66.0313C132.855 64.7708 133.072 63.6771 133.504 62.75C133.936 61.8229 134.538 61.1068 135.309 60.6016C136.079 60.0964 136.97 59.8438 137.98 59.8438C138.762 59.8438 139.379 59.974 139.832 60.2344C140.29 60.4896 140.639 60.7812 140.879 61.1094C141.124 61.4323 141.314 61.6979 141.449 61.9062H141.605V56H143.449V72H141.668V70.1562H141.449C141.314 70.375 141.121 70.651 140.871 70.9844C140.621 71.3125 140.264 71.6068 139.801 71.8672C139.337 72.1224 138.72 72.25 137.949 72.25ZM138.199 70.5938C138.939 70.5938 139.564 70.401 140.074 70.0156C140.585 69.625 140.973 69.0859 141.238 68.3984C141.504 67.7057 141.637 66.9062 141.637 66C141.637 65.1042 141.507 64.3203 141.246 63.6484C140.986 62.9714 140.6 62.4453 140.09 62.0703C139.579 61.6901 138.949 61.5 138.199 61.5C137.418 61.5 136.767 61.7005 136.246 62.1016C135.73 62.4974 135.342 63.0365 135.082 63.7187C134.827 64.3958 134.699 65.1562 134.699 66C134.699 66.8542 134.829 67.6302 135.09 68.3281C135.355 69.0208 135.746 69.5729 136.262 69.9844C136.783 70.3906 137.428 70.5938 138.199 70.5938ZM151.957 72.25C150.874 72.25 149.923 71.9922 149.105 71.4766C148.293 70.9609 147.658 70.2396 147.199 69.3125C146.746 68.3854 146.52 67.3021 146.52 66.0625C146.52 64.8125 146.746 63.7214 147.199 62.7891C147.658 61.8568 148.293 61.1328 149.105 60.6172C149.923 60.1016 150.874 59.8438 151.957 59.8438C153.04 59.8438 153.988 60.1016 154.801 60.6172C155.618 61.1328 156.254 61.8568 156.707 62.7891C157.165 63.7214 157.395 64.8125 157.395 66.0625C157.395 67.3021 157.165 68.3854 156.707 69.3125C156.254 70.2396 155.618 70.9609 154.801 71.4766C153.988 71.9922 153.04 72.25 151.957 72.25ZM151.957 70.5938C152.78 70.5938 153.457 70.3828 153.988 69.9609C154.52 69.5391 154.913 68.9844 155.168 68.2969C155.423 67.6094 155.551 66.8646 155.551 66.0625C155.551 65.2604 155.423 64.513 155.168 63.8203C154.913 63.1276 154.52 62.5677 153.988 62.1406C153.457 61.7135 152.78 61.5 151.957 61.5C151.134 61.5 150.457 61.7135 149.926 62.1406C149.395 62.5677 149.001 63.1276 148.746 63.8203C148.491 64.513 148.363 65.2604 148.363 66.0625C148.363 66.8646 148.491 67.6094 148.746 68.2969C149.001 68.9844 149.395 69.5391 149.926 69.9609C150.457 70.3828 151.134 70.5938 151.957 70.5938Z" fill="#00B37E"/>
<path d="M17.625 56V72H15.75L7.03125 59.4375H6.875V72H4.9375V56H6.8125L15.5625 68.5937H15.7188V56H17.625ZM28.8145 67.0937V60H30.6582V72H28.8145V69.9687H28.6895C28.4082 70.5781 27.9707 71.0964 27.377 71.5234C26.7832 71.9453 26.0332 72.1563 25.127 72.1563C24.377 72.1563 23.7103 71.9922 23.127 71.6641C22.5436 71.3307 22.0853 70.8307 21.752 70.1641C21.4186 69.4922 21.252 68.6458 21.252 67.625V60H23.0957V67.5C23.0957 68.375 23.3405 69.0729 23.8301 69.5938C24.3249 70.1146 24.9551 70.375 25.7207 70.375C26.179 70.375 26.6452 70.2578 27.1191 70.0234C27.5983 69.7891 27.9993 69.4297 28.3223 68.9453C28.6504 68.4609 28.8145 67.8437 28.8145 67.0937ZM39.2539 60V61.5625H33.0352V60H39.2539ZM34.8477 57.125H36.6914V68.5625C36.6914 69.0833 36.7669 69.474 36.918 69.7344C37.0742 69.9896 37.2721 70.1615 37.5117 70.25C37.7565 70.3333 38.0143 70.375 38.2852 70.375C38.4883 70.375 38.6549 70.3646 38.7852 70.3437C38.9154 70.3177 39.0195 70.2969 39.0977 70.2812L39.4727 71.9375C39.3477 71.9844 39.1732 72.0313 38.9492 72.0781C38.7253 72.1302 38.4414 72.1563 38.0977 72.1563C37.5768 72.1563 37.0664 72.0443 36.5664 71.8203C36.0716 71.5964 35.6602 71.2552 35.332 70.7969C35.0091 70.3385 34.8477 69.7604 34.8477 69.0625V57.125ZM42.0273 72V60H43.8086V61.8125H43.9336C44.1523 61.2188 44.5482 60.737 45.1211 60.3672C45.694 59.9974 46.3398 59.8125 47.0586 59.8125C47.194 59.8125 47.3633 59.8151 47.5664 59.8203C47.7695 59.8255 47.9232 59.8333 48.0273 59.8438V61.7187C47.9648 61.7031 47.8216 61.6797 47.5977 61.6484C47.3789 61.612 47.1471 61.5937 46.9023 61.5937C46.319 61.5937 45.7982 61.7161 45.3398 61.9609C44.8867 62.2005 44.5273 62.5339 44.2617 62.9609C44.0013 63.3828 43.8711 63.8646 43.8711 64.4062V72H42.0273ZM50.2129 72V60H52.0566V72H50.2129ZM51.1504 58C50.791 58 50.4811 57.8776 50.2207 57.6328C49.9655 57.388 49.8379 57.0938 49.8379 56.75C49.8379 56.4063 49.9655 56.112 50.2207 55.8672C50.4811 55.6224 50.791 55.5 51.1504 55.5C51.5098 55.5 51.8171 55.6224 52.0723 55.8672C52.3327 56.112 52.4629 56.4063 52.4629 56.75C52.4629 57.0938 52.3327 57.388 52.0723 57.6328C51.8171 57.8776 51.5098 58 51.1504 58Z" fill="#FFAE00"/>
</svg>
