<svg width="154" height="26" viewBox="0 0 154 26" fill="none" xmlns="http://www.w3.org/2000/svg">
<path d="M5.77037 3.06395C5.93786 3.21621 6.6002 3.61819 6.93518 3.77197C7.2123 3.89835 7.52748 3.9958 7.83353 4.04909C8.04974 4.08716 8.1274 4.09477 8.35884 4.10391C8.96941 4.12675 9.67896 4.42823 10.0931 4.84086C10.5606 5.30526 10.8438 6.07876 10.7996 6.76851C10.7905 6.91772 10.789 6.92077 10.7357 6.96949C10.69 7.01061 10.6504 7.02583 10.4905 7.0639C10.119 7.15373 10.0368 7.16287 9.66068 7.16439C9.2785 7.16439 9.09731 7.14612 8.69382 7.0639C8.23703 6.96949 7.85637 6.80505 7.43003 6.51575C6.98847 6.21732 6.50428 5.72398 6.25761 5.32201C5.97745 4.86522 5.76428 4.17395 5.67901 3.43395C5.66074 3.28625 5.66987 3 5.69119 3C5.69728 3.00152 5.7323 3.02893 5.77037 3.06395Z" fill="#FFAE00"/>
<path d="M12.4775 5.20325C12.3968 5.41489 12.3816 5.65547 12.4364 5.87929C12.476 6.04526 12.5339 6.196 12.5841 6.26909C12.6892 6.42592 12.9084 6.59493 13.1323 6.69238L13.2495 6.74262L13.1886 6.7746C13.1551 6.79135 13.1216 6.81419 13.1155 6.82332C13.111 6.83246 13.0226 6.87966 12.9206 6.92838C12.1456 7.29534 11.5807 7.75669 11.1955 8.33682C11.025 8.59414 10.862 8.91085 10.7357 9.23364C10.6763 9.38134 10.5666 9.71175 10.5666 9.73916C10.5666 9.75134 10.6245 9.69804 10.6945 9.62039C10.9838 9.29912 11.4132 8.96718 11.8533 8.72204C12.3359 8.45253 12.9694 8.23784 13.484 8.16933C13.6972 8.1404 14.1753 8.13735 14.3884 8.16171C15.1391 8.25003 15.9674 8.51801 16.4455 8.82558C16.7653 9.03266 17.2114 9.43158 17.49 9.76352C18.1052 10.4929 18.5117 11.3364 18.6823 12.2347C18.8467 13.1042 18.8376 14.2081 18.6579 14.9907C18.4828 15.7581 18.192 16.5605 17.8311 17.2823C17.5844 17.7725 17.2723 18.2689 16.8627 18.8201C16.3907 19.4551 15.5593 20.4158 15.2898 20.6412C14.9046 20.9625 14.3519 21.334 13.9545 21.538C13.4063 21.8197 12.7303 21.9765 12.1761 21.9506C11.5746 21.9232 11.165 21.8136 10.6093 21.5365C10.4859 21.4741 10.3702 21.4238 10.3535 21.4238C10.3367 21.4238 10.2499 21.4664 10.1601 21.5167C9.83883 21.7025 9.44447 21.8608 9.15821 21.9187C8.7806 21.9963 8.26443 22.0222 7.97056 21.9796C7.31583 21.8852 6.62912 21.6065 6.07489 21.2076C5.6653 20.9137 5.10497 20.3793 4.62839 19.825C4.36954 19.5251 3.94168 18.9358 3.6265 18.444C2.92457 17.3538 2.49823 16.4539 2.26984 15.5769C2.03688 14.6831 1.94095 13.5762 2.03688 12.8819C2.10539 12.3916 2.23634 11.8054 2.35663 11.4506C2.60482 10.7243 3.0616 10.0087 3.67218 9.39504C4.03304 9.03266 4.7639 8.57587 5.29073 8.38097C5.74448 8.21348 6.31851 8.13278 6.91233 8.15258C7.2397 8.16324 7.42851 8.18455 7.72694 8.24546C8.62225 8.4297 9.20389 8.75554 10.0124 9.52447L10.2408 9.7422L10.2606 9.48945C10.3245 8.62611 10.5134 7.86937 10.8179 7.26488C11.0813 6.73958 11.4604 6.21579 11.9994 5.63872C12.1745 5.45143 12.4577 5.17736 12.4775 5.17736C12.4836 5.17736 12.4836 5.18954 12.4775 5.20325Z" fill="#00B37E"/>
<path d="M67.5187 21V7.90909H75.3681V9.31534H69.1039V13.7386H74.7801V15.1449H69.1039V21H67.5187ZM81.1465 21.2045C80.2602 21.2045 79.4825 20.9936 78.8135 20.5717C78.1487 20.1499 77.6288 19.5597 77.2538 18.8011C76.8831 18.0426 76.6977 17.1562 76.6977 16.142C76.6977 15.1193 76.8831 14.2266 77.2538 13.4638C77.6288 12.701 78.1487 12.1087 78.8135 11.6868C79.4825 11.2649 80.2602 11.054 81.1465 11.054C82.0329 11.054 82.8085 11.2649 83.4733 11.6868C84.1423 12.1087 84.6622 12.701 85.0329 13.4638C85.4079 14.2266 85.5954 15.1193 85.5954 16.142C85.5954 17.1562 85.4079 18.0426 85.0329 18.8011C84.6622 19.5597 84.1423 20.1499 83.4733 20.5717C82.8085 20.9936 82.0329 21.2045 81.1465 21.2045ZM81.1465 19.8494C81.8198 19.8494 82.3738 19.6768 82.8085 19.3317C83.2431 18.9865 83.5649 18.5327 83.7737 17.9702C83.9825 17.4077 84.0869 16.7983 84.0869 16.142C84.0869 15.4858 83.9825 14.8743 83.7737 14.3075C83.5649 13.7408 83.2431 13.2827 82.8085 12.9332C82.3738 12.5838 81.8198 12.4091 81.1465 12.4091C80.4733 12.4091 79.9193 12.5838 79.4846 12.9332C79.05 13.2827 78.7282 13.7408 78.5194 14.3075C78.3106 14.8743 78.2062 15.4858 78.2062 16.142C78.2062 16.7983 78.3106 17.4077 78.5194 17.9702C78.7282 18.5327 79.05 18.9865 79.4846 19.3317C79.9193 19.6768 80.4733 19.8494 81.1465 19.8494ZM87.8981 21V11.1818H89.3555V12.6648H89.4578C89.6368 12.179 89.9606 11.7848 90.4294 11.4822C90.8981 11.1797 91.4266 11.0284 92.0146 11.0284C92.1254 11.0284 92.2639 11.0305 92.4301 11.0348C92.5963 11.0391 92.722 11.0455 92.8072 11.054V12.5881C92.7561 12.5753 92.6389 12.5561 92.4557 12.5305C92.2767 12.5007 92.0871 12.4858 91.8868 12.4858C91.4095 12.4858 90.9834 12.5859 90.6084 12.7862C90.2376 12.9822 89.9436 13.255 89.7263 13.6044C89.5132 13.9496 89.4067 14.3437 89.4067 14.7869V21H87.8981ZM94.5954 21V11.1818H96.0528V12.7159H96.1806C96.3852 12.1918 96.7154 11.7848 97.1714 11.495C97.6274 11.201 98.175 11.054 98.8142 11.054C99.4619 11.054 100.001 11.201 100.431 11.495C100.866 11.7848 101.205 12.1918 101.448 12.7159H101.55C101.801 12.2088 102.179 11.8061 102.681 11.5078C103.184 11.2053 103.787 11.054 104.49 11.054C105.368 11.054 106.086 11.3288 106.644 11.8786C107.203 12.424 107.482 13.2741 107.482 14.429V21H105.973V14.429C105.973 13.7045 105.775 13.1868 105.379 12.8757C104.982 12.5646 104.516 12.4091 103.979 12.4091C103.289 12.4091 102.754 12.6179 102.375 13.0355C101.995 13.4489 101.806 13.973 101.806 14.608V21H100.272V14.2756C100.272 13.7173 100.09 13.2678 99.7282 12.9268C99.366 12.5817 98.8994 12.4091 98.3284 12.4091C97.9363 12.4091 97.5698 12.5135 97.2289 12.7223C96.8923 12.9311 96.6196 13.2209 96.4108 13.5916C96.2062 13.9581 96.1039 14.3821 96.1039 14.8636V21H94.5954ZM113.129 21.2301C112.507 21.2301 111.942 21.1129 111.435 20.8786C110.928 20.6399 110.525 20.2969 110.227 19.8494C109.929 19.3977 109.78 18.8523 109.78 18.2131C109.78 17.6506 109.891 17.1946 110.112 16.8452C110.334 16.4915 110.63 16.2145 111.001 16.0142C111.371 15.8139 111.78 15.6648 112.228 15.5668C112.68 15.4645 113.133 15.3835 113.589 15.3239C114.186 15.2472 114.67 15.1896 115.04 15.1513C115.415 15.1087 115.688 15.0384 115.859 14.9403C116.033 14.8423 116.121 14.6719 116.121 14.429V14.3778C116.121 13.7472 115.948 13.2571 115.603 12.9077C115.262 12.5582 114.744 12.3835 114.05 12.3835C113.329 12.3835 112.765 12.5412 112.356 12.8565C111.947 13.1719 111.659 13.5085 111.493 13.8665L110.061 13.3551C110.317 12.7585 110.658 12.294 111.084 11.9616C111.514 11.625 111.983 11.3906 112.49 11.2585C113.001 11.1222 113.504 11.054 113.998 11.054C114.314 11.054 114.676 11.0923 115.085 11.169C115.498 11.2415 115.897 11.3928 116.28 11.6229C116.668 11.853 116.99 12.2003 117.246 12.6648C117.501 13.1293 117.629 13.7514 117.629 14.5312V21H116.121V19.6705H116.044C115.942 19.8835 115.771 20.1115 115.533 20.3544C115.294 20.5973 114.976 20.804 114.58 20.9744C114.184 21.1449 113.7 21.2301 113.129 21.2301ZM113.359 19.875C113.956 19.875 114.459 19.7578 114.868 19.5234C115.281 19.2891 115.592 18.9865 115.801 18.6158C116.014 18.245 116.121 17.8551 116.121 17.446V16.0653C116.057 16.142 115.916 16.2124 115.699 16.2763C115.486 16.3359 115.239 16.3892 114.957 16.4361C114.68 16.4787 114.41 16.517 114.145 16.5511C113.886 16.581 113.675 16.6065 113.513 16.6278C113.121 16.679 112.754 16.7621 112.413 16.8771C112.077 16.9879 111.804 17.1562 111.595 17.3821C111.391 17.6037 111.288 17.9062 111.288 18.2898C111.288 18.8139 111.482 19.2102 111.87 19.4787C112.262 19.7429 112.758 19.875 113.359 19.875ZM121.891 15.0938V21H120.383V11.1818H121.84V12.7159H121.968C122.198 12.2173 122.547 11.8168 123.016 11.5142C123.485 11.2074 124.09 11.054 124.831 11.054C125.496 11.054 126.078 11.1903 126.576 11.4631C127.075 11.7315 127.463 12.1406 127.74 12.6903C128.017 13.2358 128.155 13.9261 128.155 14.7614V21H126.647V14.8636C126.647 14.0923 126.446 13.4915 126.046 13.0611C125.645 12.6264 125.096 12.4091 124.397 12.4091C123.915 12.4091 123.485 12.5135 123.106 12.7223C122.731 12.9311 122.434 13.2358 122.217 13.6364C122 14.0369 121.891 14.5227 121.891 15.0938ZM134.619 21.2045C133.801 21.2045 133.079 20.9979 132.452 20.5845C131.826 20.1669 131.336 19.5788 130.982 18.8203C130.628 18.0575 130.452 17.1562 130.452 16.1165C130.452 15.0852 130.628 14.1903 130.982 13.4318C131.336 12.6733 131.828 12.0874 132.459 11.674C133.089 11.2607 133.818 11.054 134.645 11.054C135.284 11.054 135.789 11.1605 136.16 11.3736C136.535 11.5824 136.82 11.821 137.016 12.0895C137.217 12.3537 137.372 12.571 137.483 12.7415H137.611V7.90909H139.119V21H137.662V19.4915H137.483C137.372 19.6705 137.214 19.8963 137.01 20.169C136.805 20.4375 136.513 20.6783 136.134 20.8913C135.755 21.1001 135.25 21.2045 134.619 21.2045ZM134.824 19.8494C135.429 19.8494 135.94 19.6918 136.358 19.3764C136.775 19.0568 137.093 18.6158 137.31 18.0533C137.528 17.4865 137.636 16.8324 137.636 16.0909C137.636 15.358 137.53 14.7166 137.317 14.1669C137.104 13.6129 136.788 13.1825 136.371 12.8757C135.953 12.5646 135.437 12.4091 134.824 12.4091C134.185 12.4091 133.652 12.5732 133.226 12.9013C132.804 13.2251 132.486 13.6662 132.273 14.2244C132.065 14.7784 131.96 15.4006 131.96 16.0909C131.96 16.7898 132.067 17.4247 132.28 17.9957C132.497 18.5625 132.817 19.0142 133.239 19.3509C133.665 19.6832 134.193 19.8494 134.824 19.8494ZM146.08 21.2045C145.194 21.2045 144.416 20.9936 143.747 20.5717C143.082 20.1499 142.562 19.5597 142.187 18.8011C141.817 18.0426 141.631 17.1562 141.631 16.142C141.631 15.1193 141.817 14.2266 142.187 13.4638C142.562 12.701 143.082 12.1087 143.747 11.6868C144.416 11.2649 145.194 11.054 146.08 11.054C146.967 11.054 147.742 11.2649 148.407 11.6868C149.076 12.1087 149.596 12.701 149.967 13.4638C150.342 14.2266 150.529 15.1193 150.529 16.142C150.529 17.1562 150.342 18.0426 149.967 18.8011C149.596 19.5597 149.076 20.1499 148.407 20.5717C147.742 20.9936 146.967 21.2045 146.08 21.2045ZM146.08 19.8494C146.753 19.8494 147.307 19.6768 147.742 19.3317C148.177 18.9865 148.498 18.5327 148.707 17.9702C148.916 17.4077 149.02 16.7983 149.02 16.142C149.02 15.4858 148.916 14.8743 148.707 14.3075C148.498 13.7408 148.177 13.2827 147.742 12.9332C147.307 12.5838 146.753 12.4091 146.08 12.4091C145.407 12.4091 144.853 12.5838 144.418 12.9332C143.984 13.2827 143.662 13.7408 143.453 14.3075C143.244 14.8743 143.14 15.4858 143.14 16.142C143.14 16.7983 143.244 17.4077 143.453 17.9702C143.662 18.5327 143.984 18.9865 144.418 19.3317C144.853 19.6768 145.407 19.8494 146.08 19.8494Z" fill="#00B37E"/>
<path d="M35.9659 7.90909V21H34.4318L27.2983 10.7216H27.1705V21H25.5852V7.90909H27.1193L34.2784 18.2131H34.4062V7.90909H35.9659ZM45.1209 16.9858V11.1818H46.6294V21H45.1209V19.3381H45.0186C44.7885 19.8366 44.4306 20.2607 43.9448 20.6101C43.459 20.9553 42.8453 21.1278 42.1039 21.1278C41.4902 21.1278 40.9448 20.9936 40.4675 20.7251C39.9902 20.4524 39.6152 20.0433 39.3425 19.4979C39.0698 18.9482 38.9334 18.2557 38.9334 17.4205V11.1818H40.4419V17.3182C40.4419 18.0341 40.6422 18.6051 41.0428 19.0312C41.4476 19.4574 41.9632 19.6705 42.5897 19.6705C42.9647 19.6705 43.3461 19.5746 43.7338 19.3828C44.1259 19.1911 44.454 18.897 44.7182 18.5007C44.9867 18.1044 45.1209 17.5994 45.1209 16.9858ZM53.6623 11.1818V12.4602H48.5742V11.1818H53.6623ZM50.0572 8.82955H51.5657V18.1875C51.5657 18.6136 51.6275 18.9332 51.7511 19.1463C51.8789 19.3551 52.0408 19.4957 52.2369 19.5682C52.4371 19.6364 52.6481 19.6705 52.8697 19.6705C53.0359 19.6705 53.1722 19.6619 53.2788 19.6449C53.3853 19.6236 53.4705 19.6065 53.5344 19.5938L53.8413 20.9489C53.739 20.9872 53.5962 21.0256 53.413 21.0639C53.2298 21.1065 52.9975 21.1278 52.7163 21.1278C52.2901 21.1278 51.8725 21.0362 51.4634 20.853C51.0586 20.6697 50.7219 20.3906 50.4535 20.0156C50.1893 19.6406 50.0572 19.1676 50.0572 18.5966V8.82955ZM55.9315 21V11.1818H57.3888V12.6648H57.4911C57.6701 12.179 57.994 11.7848 58.4627 11.4822C58.9315 11.1797 59.4599 11.0284 60.0479 11.0284C60.1587 11.0284 60.2972 11.0305 60.4634 11.0348C60.6296 11.0391 60.7553 11.0455 60.8406 11.054V12.5881C60.7894 12.5753 60.6722 12.5561 60.489 12.5305C60.31 12.5007 60.1204 12.4858 59.9201 12.4858C59.4428 12.4858 59.0167 12.5859 58.6417 12.7862C58.271 12.9822 57.9769 13.255 57.7596 13.6044C57.5465 13.9496 57.44 14.3437 57.44 14.7869V21H55.9315ZM62.6287 21V11.1818H64.1373V21H62.6287ZM63.3958 9.54545C63.1017 9.54545 62.8482 9.44531 62.6351 9.24503C62.4263 9.04474 62.3219 8.80398 62.3219 8.52273C62.3219 8.24148 62.4263 8.00071 62.6351 7.80043C62.8482 7.60014 63.1017 7.5 63.3958 7.5C63.6898 7.5 63.9412 7.60014 64.15 7.80043C64.3631 8.00071 64.4696 8.24148 64.4696 8.52273C64.4696 8.80398 64.3631 9.04474 64.15 9.24503C63.9412 9.44531 63.6898 9.54545 63.3958 9.54545Z" fill="#FFAE00"/>
</svg>
