<svg width="154" height="18" viewBox="0 0 154 18" fill="none" xmlns="http://www.w3.org/2000/svg">
<path d="M51.9375 17V1H61.5313V2.7187H53.875V8.125H60.8125V9.8437H53.875V17H51.9375ZM68.5938 17.25C67.5104 17.25 66.5599 16.9922 65.7422 16.4766C64.9297 15.9609 64.2943 15.2396 63.8359 14.3125C63.3828 13.3854 63.1563 12.3021 63.1563 11.0625C63.1563 9.8125 63.3828 8.7214 63.8359 7.7891C64.2943 6.8568 64.9297 6.1328 65.7422 5.6172C66.5599 5.1016 67.5104 4.8438 68.5938 4.8438C69.6771 4.8438 70.625 5.1016 71.4375 5.6172C72.2552 6.1328 72.8906 6.8568 73.3438 7.7891C73.8021 8.7214 74.0313 9.8125 74.0313 11.0625C74.0313 12.3021 73.8021 13.3854 73.3438 14.3125C72.8906 15.2396 72.2552 15.9609 71.4375 16.4766C70.625 16.9922 69.6771 17.25 68.5938 17.25ZM68.5938 15.5938C69.4167 15.5938 70.0937 15.3828 70.625 14.9609C71.1563 14.5391 71.5495 13.9844 71.8047 13.2969C72.0599 12.6094 72.1875 11.8646 72.1875 11.0625C72.1875 10.2604 72.0599 9.513 71.8047 8.8203C71.5495 8.1276 71.1563 7.5677 70.625 7.1406C70.0937 6.7135 69.4167 6.5 68.5938 6.5C67.7708 6.5 67.0938 6.7135 66.5625 7.1406C66.0313 7.5677 65.638 8.1276 65.3828 8.8203C65.1276 9.513 65 10.2604 65 11.0625C65 11.8646 65.1276 12.6094 65.3828 13.2969C65.638 13.9844 66.0313 14.5391 66.5625 14.9609C67.0938 15.3828 67.7708 15.5938 68.5938 15.5938ZM76.8457 17V5H78.627V6.8125H78.752C78.9707 6.2188 79.3665 5.737 79.9395 5.3672C80.5124 4.9974 81.1582 4.8125 81.877 4.8125C82.0124 4.8125 82.1816 4.8151 82.3848 4.8203C82.5879 4.8255 82.7415 4.8333 82.8457 4.8438V6.7187C82.7832 6.7031 82.64 6.6797 82.416 6.6484C82.1973 6.612 81.9655 6.5937 81.7207 6.5937C81.1374 6.5937 80.6165 6.7161 80.1582 6.9609C79.7051 7.2005 79.3457 7.5339 79.0801 7.9609C78.8197 8.3828 78.6895 8.8646 78.6895 9.4062V17H76.8457ZM85.0313 17V5H86.8125V6.875H86.9688C87.2188 6.2344 87.6224 5.737 88.1797 5.3828C88.737 5.0234 89.4063 4.8438 90.1875 4.8438C90.9792 4.8438 91.638 5.0234 92.1641 5.3828C92.6953 5.737 93.1094 6.2344 93.4063 6.875H93.5313C93.8385 6.2552 94.2995 5.763 94.9141 5.3984C95.5286 5.0286 96.266 4.8438 97.125 4.8438C98.198 4.8438 99.076 5.1797 99.758 5.8516C100.44 6.5182 100.781 7.5573 100.781 8.9687V17H98.937V8.9687C98.937 8.0833 98.695 7.4505 98.211 7.0703C97.727 6.6901 97.156 6.5 96.5 6.5C95.6563 6.5 95.0026 6.7552 94.5391 7.2656C94.0755 7.7708 93.8438 8.4115 93.8438 9.1875V17H91.9688V8.7812C91.9688 8.099 91.7474 7.5495 91.3047 7.1328C90.862 6.7109 90.2917 6.5 89.5937 6.5C89.1146 6.5 88.6667 6.6276 88.25 6.8828C87.8385 7.138 87.5052 7.4922 87.25 7.9453C87 8.3932 86.875 8.9115 86.875 9.5V17H85.0313ZM107.684 17.2813C106.923 17.2813 106.233 17.138 105.613 16.8516C104.993 16.5599 104.501 16.1406 104.137 15.5938C103.772 15.0417 103.59 14.375 103.59 13.5937C103.59 12.9062 103.725 12.349 103.996 11.9219C104.267 11.4896 104.629 11.151 105.082 10.9062C105.535 10.6615 106.035 10.4792 106.582 10.3594C107.134 10.2344 107.689 10.1354 108.246 10.0625C108.975 9.9687 109.566 9.8984 110.02 9.8516C110.478 9.7995 110.811 9.7135 111.02 9.5937C111.233 9.474 111.34 9.2656 111.34 8.9687V8.9062C111.34 8.1354 111.129 7.5365 110.707 7.1094C110.29 6.6823 109.658 6.4687 108.809 6.4687C107.928 6.4687 107.238 6.6615 106.738 7.0469C106.238 7.4323 105.887 7.8437 105.684 8.2812L103.934 7.6562C104.246 6.9271 104.663 6.3594 105.184 5.9531C105.71 5.5417 106.283 5.2552 106.902 5.0937C107.527 4.9271 108.142 4.8438 108.746 4.8438C109.132 4.8438 109.574 4.8906 110.074 4.9844C110.579 5.0729 111.066 5.2578 111.535 5.5391C112.009 5.8203 112.402 6.2448 112.715 6.8125C113.027 7.3802 113.184 8.1406 113.184 9.0938V17H111.34V15.375H111.246C111.121 15.6354 110.913 15.9141 110.621 16.2109C110.329 16.5078 109.941 16.7604 109.457 16.9687C108.973 17.1771 108.382 17.2813 107.684 17.2813ZM107.965 15.625C108.694 15.625 109.309 15.4818 109.809 15.1953C110.314 14.9089 110.694 14.5391 110.949 14.0859C111.21 13.6328 111.34 13.1562 111.34 12.6562V10.9687C111.262 11.0625 111.09 11.1484 110.824 11.2266C110.564 11.2995 110.262 11.3646 109.918 11.4219C109.579 11.474 109.249 11.5208 108.926 11.5625C108.608 11.599 108.35 11.6302 108.152 11.6562C107.673 11.7187 107.225 11.8203 106.809 11.9609C106.397 12.0964 106.064 12.3021 105.809 12.5781C105.559 12.849 105.434 13.2187 105.434 13.6875C105.434 14.3281 105.671 14.8125 106.145 15.1406C106.624 15.4635 107.23 15.625 107.965 15.625ZM118.393 9.7812V17H116.549V5H118.33V6.875H118.486C118.768 6.2656 119.195 5.776 119.768 5.4063C120.34 5.0313 121.08 4.8438 121.986 4.8438C122.799 4.8438 123.51 5.0104 124.119 5.3437C124.729 5.6719 125.202 6.1719 125.541 6.8437C125.88 7.5104 126.049 8.3542 126.049 9.375V17H124.205V9.5C124.205 8.5573 123.96 7.8229 123.471 7.2969C122.981 6.7656 122.309 6.5 121.455 6.5C120.867 6.5 120.34 6.6276 119.877 6.8828C119.419 7.138 119.057 7.5104 118.791 8C118.525 8.4896 118.393 9.0833 118.393 9.7812ZM133.949 17.25C132.949 17.25 132.066 16.9974 131.301 16.4922C130.535 15.9818 129.936 15.263 129.504 14.3359C129.072 13.4036 128.855 12.3021 128.855 11.0313C128.855 9.7708 129.072 8.6771 129.504 7.75C129.936 6.8229 130.538 6.1068 131.309 5.6016C132.079 5.0964 132.97 4.8438 133.98 4.8438C134.762 4.8438 135.379 4.974 135.832 5.2344C136.29 5.4896 136.639 5.7812 136.879 6.1094C137.124 6.4323 137.314 6.6979 137.449 6.9062H137.605V1H139.449V17H137.668V15.1562H137.449C137.314 15.375 137.121 15.651 136.871 15.9844C136.621 16.3125 136.264 16.6068 135.801 16.8672C135.337 17.1224 134.72 17.25 133.949 17.25ZM134.199 15.5938C134.939 15.5938 135.564 15.401 136.074 15.0156C136.585 14.625 136.973 14.0859 137.238 13.3984C137.504 12.7057 137.637 11.9062 137.637 11C137.637 10.1042 137.507 9.3203 137.246 8.6484C136.986 7.9714 136.6 7.4453 136.09 7.0703C135.579 6.6901 134.949 6.5 134.199 6.5C133.418 6.5 132.767 6.7005 132.246 7.1016C131.73 7.4974 131.342 8.0365 131.082 8.7187C130.827 9.3958 130.699 10.1562 130.699 11C130.699 11.8542 130.829 12.6302 131.09 13.3281C131.355 14.0208 131.746 14.5729 132.262 14.9844C132.783 15.3906 133.428 15.5938 134.199 15.5938ZM147.957 17.25C146.874 17.25 145.923 16.9922 145.105 16.4766C144.293 15.9609 143.658 15.2396 143.199 14.3125C142.746 13.3854 142.52 12.3021 142.52 11.0625C142.52 9.8125 142.746 8.7214 143.199 7.7891C143.658 6.8568 144.293 6.1328 145.105 5.6172C145.923 5.1016 146.874 4.8438 147.957 4.8438C149.04 4.8438 149.988 5.1016 150.801 5.6172C151.618 6.1328 152.254 6.8568 152.707 7.7891C153.165 8.7214 153.395 9.8125 153.395 11.0625C153.395 12.3021 153.165 13.3854 152.707 14.3125C152.254 15.2396 151.618 15.9609 150.801 16.4766C149.988 16.9922 149.04 17.25 147.957 17.25ZM147.957 15.5938C148.78 15.5938 149.457 15.3828 149.988 14.9609C150.52 14.5391 150.913 13.9844 151.168 13.2969C151.423 12.6094 151.551 11.8646 151.551 11.0625C151.551 10.2604 151.423 9.513 151.168 8.8203C150.913 8.1276 150.52 7.5677 149.988 7.1406C149.457 6.7135 148.78 6.5 147.957 6.5C147.134 6.5 146.457 6.7135 145.926 7.1406C145.395 7.5677 145.001 8.1276 144.746 8.8203C144.491 9.513 144.363 10.2604 144.363 11.0625C144.363 11.8646 144.491 12.6094 144.746 13.2969C145.001 13.9844 145.395 14.5391 145.926 14.9609C146.457 15.3828 147.134 15.5938 147.957 15.5938Z" fill="#00B37E"/>
<path d="M13.625 1V17H11.75L3.03125 4.4375H2.875V17H0.9375V1H2.8125L11.5625 13.5937H11.7188V1H13.625ZM24.8145 12.0937V5H26.6582V17H24.8145V14.9687H24.6895C24.4082 15.5781 23.9707 16.0964 23.377 16.5234C22.7832 16.9453 22.0332 17.1563 21.127 17.1563C20.377 17.1563 19.7103 16.9922 19.127 16.6641C18.5436 16.3307 18.0853 15.8307 17.752 15.1641C17.4186 14.4922 17.252 13.6458 17.252 12.625V5H19.0957V12.5C19.0957 13.375 19.3405 14.0729 19.8301 14.5938C20.3249 15.1146 20.9551 15.375 21.7207 15.375C22.179 15.375 22.6452 15.2578 23.1191 15.0234C23.5983 14.7891 23.9993 14.4297 24.3223 13.9453C24.6504 13.4609 24.8145 12.8437 24.8145 12.0937ZM35.2539 5V6.5625H29.0352V5H35.2539ZM30.8477 2.125H32.6914V13.5625C32.6914 14.0833 32.7669 14.474 32.918 14.7344C33.0742 14.9896 33.2721 15.1615 33.5117 15.25C33.7565 15.3333 34.0143 15.375 34.2852 15.375C34.4883 15.375 34.6549 15.3646 34.7852 15.3437C34.9154 15.3177 35.0195 15.2969 35.0977 15.2812L35.4727 16.9375C35.3477 16.9844 35.1732 17.0313 34.9492 17.0781C34.7253 17.1302 34.4414 17.1563 34.0977 17.1563C33.5768 17.1563 33.0664 17.0443 32.5664 16.8203C32.0716 16.5964 31.6602 16.2552 31.332 15.7969C31.0091 15.3385 30.8477 14.7604 30.8477 14.0625V2.125ZM38.0273 17V5H39.8086V6.8125H39.9336C40.1523 6.2188 40.5482 5.737 41.1211 5.3672C41.694 4.9974 42.3398 4.8125 43.0586 4.8125C43.194 4.8125 43.3633 4.8151 43.5664 4.8203C43.7695 4.8255 43.9232 4.8333 44.0273 4.8438V6.7187C43.9648 6.7031 43.8216 6.6797 43.5977 6.6484C43.3789 6.612 43.1471 6.5937 42.9023 6.5937C42.319 6.5937 41.7982 6.7161 41.3398 6.9609C40.8867 7.2005 40.5273 7.5339 40.2617 7.9609C40.0013 8.3828 39.8711 8.8646 39.8711 9.4062V17H38.0273ZM46.2129 17V5H48.0566V17H46.2129ZM47.1504 3C46.791 3 46.4811 2.8776 46.2207 2.6328C45.9655 2.388 45.8379 2.0938 45.8379 1.75C45.8379 1.4063 45.9655 1.112 46.2207 0.867199C46.4811 0.622399 46.791 0.5 47.1504 0.5C47.5098 0.5 47.8171 0.622399 48.0723 0.867199C48.3327 1.112 48.4629 1.4063 48.4629 1.75C48.4629 2.0938 48.3327 2.388 48.0723 2.6328C47.8171 2.8776 47.5098 3 47.1504 3Z" fill="#FFAE00"/>
</svg>
