<svg width="34" height="39" viewBox="0 0 34 39" fill="none" xmlns="http://www.w3.org/2000/svg">
<path d="M7.63077 0.129431C7.96967 0.437591 9.31017 1.25114 9.98817 1.56238C10.549 1.81815 11.1869 2.01539 11.8063 2.12319C12.2439 2.20029 12.4011 2.21569 12.8695 2.23419C14.1052 2.28039 15.5413 2.89059 16.3795 3.72569C17.3255 4.66559 17.8987 6.23099 17.8093 7.62699C17.7908 7.92899 17.7878 7.93519 17.6799 8.03379C17.5875 8.11699 17.5073 8.14779 17.1838 8.22479C16.4319 8.40669 16.2654 8.42509 15.5043 8.42819C14.7308 8.42819 14.3641 8.39129 13.5475 8.22479C12.623 8.03379 11.8526 7.70099 10.9897 7.11549C10.096 6.51149 9.11607 5.51299 8.61687 4.69949C8.04987 3.77499 7.61837 2.37589 7.44587 0.878261C7.40887 0.579341 7.42737 0 7.47047 0C7.48277 0.00308 7.55367 0.0585508 7.63077 0.129431Z" fill="#FFAE00"/>
<path d="M21.2053 4.45908C21.042 4.88748 21.0111 5.37428 21.1221 5.82728C21.2022 6.16318 21.3193 6.46828 21.421 6.61618C21.6336 6.93358 22.0774 7.27568 22.5304 7.47288L22.7677 7.57458L22.6444 7.63928C22.5766 7.67318 22.5088 7.71948 22.4965 7.73788C22.4872 7.75638 22.3085 7.85198 22.102 7.95058C20.5335 8.69318 19.3902 9.62698 18.6106 10.8011C18.2654 11.3219 17.9357 11.9628 17.6799 12.6161C17.5597 12.9151 17.3379 13.5838 17.3379 13.6392C17.3379 13.6639 17.455 13.556 17.5967 13.3989C18.1822 12.7487 19.0512 12.0769 19.9418 11.5807C20.9187 11.0353 22.2006 10.6008 23.2422 10.4621C23.6737 10.4035 24.6413 10.3974 25.0727 10.4467C26.5919 10.6254 28.2683 11.1678 29.236 11.7903C29.8831 12.2094 30.786 13.0168 31.35 13.6885C32.5949 15.1646 33.4177 16.8719 33.7629 18.69C34.0957 20.4496 34.0772 22.6838 33.7136 24.2677C33.3592 25.8209 32.7706 27.4449 32.0402 28.9056C31.541 29.8978 30.9093 30.9025 30.0803 32.018C29.125 33.303 27.4425 35.2475 26.897 35.7036C26.1174 36.3538 24.9988 37.1057 24.1944 37.5187C23.0851 38.0888 21.7168 38.4062 20.5951 38.3538C19.3779 38.2983 18.5489 38.0765 17.4241 37.5156C17.1745 37.3893 16.9403 37.2876 16.9064 37.2876C16.8725 37.2876 16.6969 37.3738 16.5151 37.4755C15.8648 37.8515 15.0667 38.172 14.4874 38.2891C13.7231 38.4463 12.6784 38.4986 12.0837 38.4124C10.7586 38.2213 9.36882 37.6574 8.24712 36.85C7.41812 36.2552 6.28412 35.1736 5.31952 34.0519C4.79572 33.4448 3.92972 32.2522 3.29182 31.2568C1.87122 29.0504 1.00842 27.2292 0.546116 25.4542C0.0746157 23.6452 -0.119481 21.4049 0.0746192 19.9997C0.213319 19.0074 0.478321 17.821 0.721821 17.103C1.22412 15.633 2.14862 14.1847 3.38432 12.9428C4.11462 12.2094 5.59382 11.2849 6.66002 10.8904C7.57842 10.5515 8.74012 10.3881 9.94202 10.4282C10.6045 10.4498 10.9866 10.4929 11.5906 10.6162C13.4026 10.9891 14.5798 11.6485 16.2161 13.2047L16.6784 13.6454L16.7184 13.1339C16.8479 11.3866 17.23 9.85498 17.8463 8.63158C18.3794 7.56848 19.1468 6.50838 20.2377 5.34038C20.592 4.96138 21.1652 4.40668 21.2053 4.40668C21.2176 4.40668 21.2176 4.43138 21.2053 4.45908Z" fill="#00B37E"/>
</svg>
